<svg width="46" height="46" viewBox="0 0 46 46" fill="none" xmlns="http://www.w3.org/2000/svg">
<path d="M23 3.83331C33.58 3.83331 42.1666 12.42 42.1666 23C42.1666 33.58 33.58 42.1666 23 42.1666C12.42 42.1666 3.83331 33.58 3.83331 23C3.83331 12.42 12.42 3.83331 23 3.83331ZM11.5441 29.5473C14.3577 33.7448 18.5821 36.4166 23.3066 36.4166C28.0293 36.4166 32.2556 33.7467 35.0673 29.5473C31.8775 26.5661 27.6727 24.9105 23.3066 24.9166C18.9399 24.91 14.7344 26.5657 11.5441 29.5473V29.5473ZM23 21.0833C24.525 21.0833 25.9875 20.4775 27.0658 19.3992C28.1442 18.3208 28.75 16.8583 28.75 15.3333C28.75 13.8083 28.1442 12.3458 27.0658 11.2674C25.9875 10.1891 24.525 9.58331 23 9.58331C21.475 9.58331 20.0124 10.1891 18.9341 11.2674C17.8558 12.3458 17.25 13.8083 17.25 15.3333C17.25 16.8583 17.8558 18.3208 18.9341 19.3992C20.0124 20.4775 21.475 21.0833 23 21.0833V21.0833Z" fill="#6A6969"/>
</svg>
