<?xml version="1.0" encoding="iso-8859-1"?>
<!-- Generator: Adobe Illustrator 19.0.0, SVG Export Plug-In . SVG Version: 6.00 Build 0)  -->
<svg version="1.1" id="Layer_1" xmlns="http://www.w3.org/2000/svg" xmlns:xlink="http://www.w3.org/1999/xlink" x="0px" y="0px"
	 viewBox="0 0 305.372 305.372" style="enable-background:new 0 0 305.372 305.372;" xml:space="preserve">
<g>
	<rect x="109.205" y="7.5" style="fill:#80D0E1;" width="86.97" height="44.667"/>
	<polygon style="fill:#FFFFFF;" points="226.175,96.833 79.205,96.833 109.205,52.167 196.175,52.167 	"/>
	<rect x="79.205" y="96.833" style="fill:#80D0E1;" width="146.97" height="77.661"/>
	<path style="fill:#FFFFFF;" d="M205.175,297.873h-104.97c-11.598,0-21-9.402-21-21V174.494h146.97v102.379
		C226.175,288.471,216.773,297.873,205.175,297.873z"/>
	<path style="fill:#414042;" d="M203.675,49.882V7.5c0-4.142-3.357-7.5-7.5-7.5h-86.971c-4.143,0-7.5,3.358-7.5,7.5v42.382
		c-31.61,47.064-30,43.853-30,46.951c0,6.673,0-40.024,0,180.039c0,15.715,12.785,28.5,28.5,28.5h104.971
		c15.715,0,28.5-12.785,28.5-28.5c0-8.284,0-176.535,0-180.039C233.675,93.695,234.943,96.436,203.675,49.882z M86.704,104.334
		h131.971v62.661H86.704V104.334z M116.704,15h71.971v29.667h-71.971V15z M113.202,59.667h78.977l19.925,29.667H93.277
		L113.202,59.667z M218.675,276.873c0,7.444-6.056,13.5-13.5,13.5H100.204c-7.444,0-13.5-6.056-13.5-13.5v-16.689h22.25
		c4.143,0,7.5-3.358,7.5-7.5s-3.357-7.5-7.5-7.5h-22.25v-18h22.25c4.143,0,7.5-3.358,7.5-7.5s-3.357-7.5-7.5-7.5h-22.25v-30.189
		h131.971L218.675,276.873L218.675,276.873z"/>
</g>
<g>
</g>
<g>
</g>
<g>
</g>
<g>
</g>
<g>
</g>
<g>
</g>
<g>
</g>
<g>
</g>
<g>
</g>
<g>
</g>
<g>
</g>
<g>
</g>
<g>
</g>
<g>
</g>
<g>
</g>
</svg>
