<svg width="68" height="58" viewBox="0 0 68 58" fill="none" xmlns="http://www.w3.org/2000/svg">
<path d="M64.394 52.6276H7.37598C6.94507 52.6276 6.59418 53.0103 6.59418 53.5257C6.59418 54.0409 6.94507 54.4234 7.37598 54.4234H64.3942C64.8251 54.4234 65.176 54.0409 65.176 53.5257C65.1758 53.0103 64.8251 52.6276 64.394 52.6276Z" fill="#84BD93"/>
<path d="M16.9164 11.3982C16.6476 11.0815 16.4964 10.6489 16.4964 10.1977C16.4964 9.74671 16.6476 9.31414 16.916 8.99694C17.9323 7.79732 18.3553 6.72049 17.9988 7.6761C17.8791 7.38967 17.6283 6.6215 17.3937 6.33439C16.944 5.78329 16.3345 5.26227 15.6768 5.26227H15.6691C15.4862 5.26227 15.2271 5.30514 15.0528 5.35049C15.1529 6.94295 14.7404 8.7334 13.9847 10.0109L19.7728 16.7592C20.2163 16.5981 20.6847 16.4932 21.1745 16.3992L16.9164 11.3982Z" fill="#FDD44B"/>
<path d="M12.212 5.4111C12.2371 5.49775 12.2603 5.58485 12.276 5.67285C12.2603 5.58485 12.2373 5.49775 12.212 5.4111Z" fill="#FDD44B"/>
<path d="M11.5778 4.24559C11.6731 4.36367 11.758 4.48107 11.8346 4.59847C11.7578 4.48107 11.6729 4.36367 11.5778 4.24559Z" fill="#FDD44B"/>
<path d="M12.0785 5.04968C12.1174 5.13656 12.1549 5.22343 12.1842 5.31098C12.1548 5.22365 12.1176 5.13656 12.0785 5.04968Z" fill="#FDD44B"/>
<path d="M4.10861 14.2713C4.0331 14.2235 3.95759 14.1683 3.88226 14.1072C3.95759 14.1685 4.0331 14.2233 4.10861 14.2713Z" fill="#FDD44B"/>
<path d="M11.0701 11.4258C10.7964 11.1086 10.6413 10.6725 10.6409 10.2165C10.6401 9.76063 10.7942 9.32379 11.0675 9.0057C11.301 8.73363 11.8754 8.0016 12.1619 7.0837C12.3155 6.59096 12.3533 6.13796 12.28 5.7018C12.1079 5.65466 11.9306 5.62705 11.7484 5.6248C11.0615 5.62615 10.4097 5.93414 9.92126 6.51801C9.35491 7.19504 9.09587 8.12821 9.21046 9.07753C9.27414 9.60416 9.1263 10.136 8.8111 10.5122C8.49628 10.8886 8.05146 11.0655 7.61078 10.989C6.81695 10.8523 6.03552 11.1612 5.4688 11.8384C4.96913 12.4358 4.6915 13.2616 4.70728 14.1034C4.7101 14.2493 4.72437 14.3914 4.74447 14.5311C4.54742 14.4936 4.35226 14.4181 4.15784 14.3025C5.16261 14.9044 6.19369 14.3892 7.38537 13.4149C7.74603 13.12 8.59114 12.4292 9.43794 13.2284C9.48058 13.2686 9.52096 13.3117 9.55966 13.3575L15.6065 20.559C15.7159 20.3292 15.8312 20.1038 15.9606 19.8885C16.2863 19.3457 16.6772 18.8617 17.1217 18.4339L11.0701 11.4258Z" fill="#FDD44B"/>
<path d="M11.8859 4.68669C11.9402 4.77559 11.9932 4.86426 12.037 4.95338C11.9928 4.86426 11.9404 4.77536 11.8859 4.68669Z" fill="#FDD44B"/>
<path d="M3.54022 13.7874C3.63133 13.8868 3.72262 13.9726 3.81372 14.0516C3.72262 13.9728 3.63133 13.8868 3.54022 13.7874Z" fill="#FDD44B"/>
<path d="M19.1455 31.1015C19.0875 30.9756 19.0262 30.851 18.9708 30.7244C19.0262 30.8512 19.0875 30.9756 19.1455 31.1015Z" fill="#EF8829"/>
<path d="M22.2983 36.0809C22.4792 36.2953 22.6633 36.5011 22.85 36.7038C22.6634 36.5014 22.479 36.2953 22.2983 36.0809Z" fill="#EF8829"/>
<path d="M33.7769 24.1352C33.9724 24.331 34.1585 24.5276 34.3302 24.7249C34.1582 24.5276 33.9728 24.3312 33.7769 24.1352Z" fill="#EF8829"/>
<path d="M33.0317 23.4429C33.2556 23.6348 33.4626 23.8281 33.6615 24.0221C33.4624 23.8281 33.2554 23.6348 33.0317 23.4429Z" fill="#EF8829"/>
<path d="M34.8498 25.3723C34.6952 25.1636 34.5289 24.9552 34.3492 24.7478C34.5286 24.955 34.6954 25.1633 34.8498 25.3723Z" fill="#EF8829"/>
<path d="M34.8641 25.3912C35.0232 25.6073 35.1693 25.824 35.3031 26.041C35.1695 25.824 35.0234 25.6073 34.8641 25.3912Z" fill="#EF8829"/>
<path d="M21.7627 35.4268C21.6511 35.2829 21.545 35.132 21.4362 34.9841C21.5452 35.1323 21.6511 35.2829 21.7627 35.4268Z" fill="#EF8829"/>
<path d="M35.3032 26.0411C35.1774 25.9245 35.0493 25.8085 34.9144 25.6927C32.1918 23.3587 28.3594 21.8509 25.1507 21.8509C22.791 21.8509 21.011 22.6519 20.138 24.1058C19.1162 25.8083 19.2092 28.6273 20.3935 31.8398C21.0675 33.6687 22.0375 35.4679 23.1804 37.0574C23.5301 37.4173 23.885 37.7623 24.2484 38.0739C25.9047 39.4937 27.4983 40.2136 28.9851 40.2136C31.626 40.2136 33.5644 37.9086 34.7252 35.975C36.3337 33.2951 37.5064 29.6184 35.3032 26.0411Z" fill="#EF8829"/>
<path d="M20.3648 33.3896C20.2709 33.2359 20.1794 33.0805 20.0891 32.9243C20.1794 33.0807 20.2709 33.2356 20.3648 33.3896Z" fill="#EF8829"/>
<path d="M19.7336 32.2841C19.6544 32.1361 19.5749 31.9884 19.499 31.8389C19.5749 31.9887 19.6544 32.1359 19.7336 32.2841Z" fill="#EF8829"/>
<path d="M21.0424 34.4377C20.9375 34.2853 20.8367 34.1291 20.735 33.9735C20.8367 34.1293 20.9374 34.2851 21.0424 34.4377Z" fill="#EF8829"/>
<path d="M13.8605 46.8977C13.8333 46.8461 13.8066 46.7936 13.7805 46.7397C13.8066 46.7936 13.8331 46.8457 13.8605 46.8977Z" fill="#EF8829"/>
<path d="M60.2544 21.2605C60.1631 21.1476 60.0727 21.0345 59.9762 20.924C60.0727 21.0345 60.1631 21.1476 60.2544 21.2605Z" fill="#EF8829"/>
<path d="M59.2476 20.161C59.3381 20.247 59.4202 20.3375 59.5068 20.4255C59.4202 20.3377 59.3381 20.2472 59.2476 20.161Z" fill="#EF8829"/>
<path d="M14.19 47.4524C14.1799 47.4374 14.1703 47.4201 14.1602 47.4048C14.1705 47.4201 14.1797 47.4374 14.19 47.4524Z" fill="#EF8829"/>
<path d="M60.6175 21.7313C60.7071 21.8547 60.7937 21.9793 60.8778 22.1055C60.7937 21.9793 60.7071 21.8547 60.6175 21.7313Z" fill="#EF8829"/>
<path d="M15.0278 48.4006C15.0069 48.382 14.9857 48.3598 14.9647 48.3405C14.9857 48.36 15.0065 48.3818 15.0278 48.4006Z" fill="#EF8829"/>
<path d="M35.1587 21.1301C35.0028 20.9853 34.8425 20.8423 34.6776 20.7009C34.8425 20.8423 35.0024 20.9855 35.1587 21.1301Z" fill="#EF8829"/>
<path d="M17.6755 34.6739C17.6035 34.5473 17.5295 34.4223 17.4597 34.2945C17.5297 34.4223 17.6034 34.5471 17.6755 34.6739Z" fill="#EF8829"/>
<path d="M60.9872 22.279C60.7702 22.0792 60.5467 21.8832 60.3085 21.6956C58.0756 19.9379 53.6391 17.885 48.4848 17.885C44.0023 17.885 40.6957 19.0245 35.6125 21.5674C37.8371 23.7913 39.0833 26.367 39.3173 29.2403C39.5457 32.0488 38.7514 35.058 37.0198 37.9425C34.8021 41.6361 32.0239 43.5887 28.9852 43.5887C26.8958 43.5887 24.7482 42.656 22.6022 40.8163C20.9881 39.4326 19.476 37.6056 18.2133 35.5785C18.2569 35.6486 18.2957 35.722 18.3399 35.7916C17.9978 36.3696 17.6815 36.9548 17.3947 37.5454C15.2115 42.0386 14.5173 45.767 15.3862 48.327C15.4467 48.505 15.5155 48.5587 15.5872 48.7189C15.9116 48.9369 16.1936 49.0361 16.3559 49.0361H51.2892C55.0712 49.0361 60.1255 42.557 62.3263 34.7558C63.4105 30.9107 63.4436 26.1097 60.9872 22.279ZM51.1434 40.4019C50.8815 40.7149 50.5164 40.8947 50.1454 40.8947C49.7729 40.8947 49.4092 40.7146 49.1477 40.4019C48.8842 40.087 48.7334 39.6526 48.7334 39.2073C48.7334 38.7641 48.884 38.3298 49.1477 38.0148C49.4092 37.7019 49.7729 37.5221 50.1454 37.5221C50.5164 37.5221 50.8815 37.7019 51.1434 38.0148C51.4071 38.3298 51.5574 38.7641 51.5574 39.2073C51.5574 39.6526 51.4071 40.087 51.1434 40.4019ZM53.335 35.4028C53.0731 35.7179 52.7079 35.8978 52.337 35.8978C51.966 35.8978 51.6008 35.7179 51.3389 35.4028C51.0756 35.0901 50.9249 34.6557 50.9249 34.2103C50.9249 33.7647 51.0758 33.3306 51.3389 33.0179C51.6008 32.7027 51.966 32.5229 52.337 32.5229C52.7079 32.5229 53.0731 32.7027 53.335 33.0179C53.5983 33.3306 53.749 33.7647 53.749 34.2103C53.749 34.6557 53.5983 35.0901 53.335 35.4028ZM56.846 39.1893C56.5845 39.5045 56.2189 39.6843 55.8483 39.6843C55.4773 39.6843 55.114 39.5045 54.8503 39.1893C54.5868 38.8766 54.4363 38.44 54.4363 37.9969C54.4363 37.5535 54.5868 37.1171 54.8503 36.8044C55.1122 36.4895 55.4773 36.3094 55.8483 36.3094C56.2212 36.3094 56.5845 36.4895 56.846 36.8044C57.1095 37.1171 57.2603 37.5535 57.2603 37.9969C57.2603 38.44 57.1095 38.8766 56.846 39.1893Z" fill="#EF8829"/>
<path d="M14.5503 47.9131C14.5841 47.9521 14.6174 47.9885 14.6514 48.0255C14.6177 47.9889 14.5839 47.9519 14.5503 47.9131Z" fill="#EF8829"/>
<path d="M15.4905 48.7661C15.4544 48.7407 15.4184 48.7151 15.3813 48.6875C15.4189 48.7156 15.4539 48.7403 15.4905 48.7661Z" fill="#EF8829"/>
<path d="M64.3942 49.259H57.7509C60.9082 46.0339 63.5936 40.9378 65.002 35.9451C67.156 28.3087 65.1848 20.726 59.9793 16.6275C57.2974 14.5162 52.3752 12.2602 46.602 12.2602C40.841 12.2602 36.7928 13.9961 29.7813 17.674C28.2594 17.0203 26.68 16.568 25.1422 16.3606L19.8271 10.0899C21.1781 7.78744 21.6881 4.65033 19.4227 1.87598C18.439 0.671195 17.1145 0.00516304 15.6925 0H15.6771C14.6364 0 13.6146 0.37129 12.7479 1.04249C11.9123 0.376228 10.9291 0.0116728 9.89206 0.000224357C9.87553 -1.23321e-07 9.85938 0 9.84322 0C8.42707 0 7.04379 0.683991 6.04146 1.88182C5.23655 2.84416 4.7181 4.0898 4.54378 5.41177C3.43738 5.62009 2.39485 6.23965 1.58956 7.202C0.546654 8.44809 -0.0317169 10.1714 0.00134362 11.93C0.033277 13.6194 0.613902 15.1641 1.6354 16.2793C3.54013 18.3584 5.79651 18.4925 8.34987 16.6818L14.7352 24.2865C14.6639 25.9001 14.9062 27.6798 15.4652 29.5649C14.5466 30.8642 13.7414 32.2174 13.0694 33.6004C10.3776 39.1406 9.65031 43.7864 10.9079 47.4086C11.1521 48.1119 11.4555 48.7245 11.7897 49.2588H5.49333C3.505 49.2588 1.88748 51.1918 1.88748 53.5682C1.88748 55.9443 3.505 57.8773 5.49333 57.8773H64.3942C66.3825 57.8773 68 55.9443 68 53.5682C68 51.192 66.3825 49.259 64.3942 49.259ZM64.3942 54.5027H5.49333C5.06242 54.5027 4.71152 54.0838 4.71152 53.5684C4.71152 53.0532 5.06223 52.6339 5.49333 52.6339H64.3942C64.8251 52.6339 65.176 53.053 65.176 53.5684C65.176 54.0836 64.8253 54.5027 64.3942 54.5027ZM9.43823 13.2288C8.59143 12.4297 7.74633 13.1204 7.38567 13.4154C5.94904 14.5901 4.74552 15.1026 3.54051 13.7873C3.09344 13.2996 2.83929 12.6126 2.82501 11.8537C2.80923 11.0117 3.08686 10.186 3.58653 9.58867C4.15325 8.91141 4.93449 8.60253 5.72851 8.73924C6.169 8.81579 6.614 8.63889 6.92883 8.26244C7.24403 7.88621 7.39186 7.35464 7.32819 6.82801C7.21341 5.87846 7.47264 4.94552 8.03899 4.26849C8.52738 3.68439 9.17938 3.37641 9.86614 3.37506C10.5236 3.38247 11.1315 3.69158 11.5781 4.24582C12.3106 5.15451 12.4909 6.02976 12.1622 7.08392C11.8757 8.0016 11.3013 8.73385 11.0678 9.00592C10.7945 9.32401 10.6404 9.76085 10.6412 10.2168C10.6416 10.6727 10.7967 11.1089 11.0704 11.426L17.122 18.4345C16.6777 18.8624 16.2868 19.3464 15.9611 19.8892C15.8317 20.1044 15.7162 20.3298 15.607 20.5597L9.56014 13.3581C9.52126 13.3121 9.48087 13.269 9.43823 13.2288ZM14.652 3.63254C14.9708 3.46463 15.3176 3.37484 15.6769 3.37484H15.6846C16.3421 3.3773 16.9518 3.6817 17.4015 4.2328C18.8419 5.99654 17.9325 7.79709 16.9161 8.99672C16.6477 9.31391 16.4965 9.74648 16.4965 10.1975C16.4965 10.6487 16.6477 11.081 16.9165 11.398L21.1743 16.4214C20.6846 16.5155 20.216 16.643 19.7726 16.8041L13.9848 10.1012C15.0643 8.27636 15.6104 5.92246 14.652 3.63254ZM18.2552 21.8561C19.1281 20.4019 20.9083 19.6012 23.268 19.6012C26.4768 19.6012 30.3092 21.109 33.0318 23.4429C38.0607 27.7545 36.7285 32.6376 34.7252 35.975C33.5643 37.9086 31.6261 40.2136 28.9851 40.2136C27.4985 40.2136 25.9046 39.4937 24.2484 38.0739C21.8586 36.0255 19.7137 32.8538 18.5109 29.5901C17.3265 26.3775 17.2334 23.5585 18.2552 21.8561ZM15.5118 35.2952C15.8897 34.5172 16.3182 33.7481 16.7899 32.9932C18.2383 36.0356 20.3238 38.8631 22.6021 40.8161C24.7481 42.656 26.8957 43.5884 28.9851 43.5884C32.0238 43.5884 34.802 41.6361 37.0197 37.9423C38.7512 35.0577 39.5454 32.0486 39.3172 29.2401C39.0522 25.9856 37.4912 23.1125 34.6777 20.7007C34.2131 20.3024 33.7234 19.928 33.2159 19.5756C38.5942 16.8511 41.9701 15.6346 46.602 15.6346C51.7562 15.6346 56.1929 17.6875 58.4256 19.4452C63.4031 23.3646 63.7038 29.9813 62.326 34.8667C60.1252 42.6678 55.0709 49.2586 51.2889 49.2586H16.3558C15.848 49.0433 14.2271 48.2078 13.5034 46.0764C12.6344 43.5168 13.3287 39.7884 15.5118 35.2952Z" fill="#3F2D20"/>
<path d="M50.1454 40.8947C50.5164 40.8947 50.8816 40.7149 51.1434 40.4019C51.4072 40.087 51.5574 39.6526 51.5574 39.2072C51.5574 38.7641 51.407 38.3298 51.1434 38.0148C50.8816 37.7019 50.5164 37.5221 50.1454 37.5221C49.7729 37.5221 49.4093 37.7019 49.1478 38.0148C48.8842 38.3298 48.7334 38.7641 48.7334 39.2072C48.7334 39.6526 48.884 40.087 49.1478 40.4019C49.4093 40.7149 49.7729 40.8947 50.1454 40.8947Z" fill="#3F2D20"/>
<path d="M55.8483 39.6843C56.2189 39.6843 56.5845 39.5043 56.8459 39.1893C57.1095 38.8766 57.2603 38.44 57.2603 37.9969C57.2603 37.5535 57.1095 37.1171 56.8459 36.8044C56.5845 36.4895 56.2212 36.3094 55.8483 36.3094C55.4773 36.3094 55.1121 36.4895 54.8503 36.8044C54.5866 37.1171 54.4363 37.5535 54.4363 37.9969C54.4363 38.44 54.5867 38.8766 54.8503 39.1893C55.114 39.5045 55.4773 39.6843 55.8483 39.6843Z" fill="#3F2D20"/>
<path d="M52.337 35.8978C52.708 35.8978 53.0732 35.718 53.335 35.4028C53.5982 35.0901 53.749 34.6557 53.749 34.2103C53.749 33.7647 53.5982 33.3306 53.335 33.0179C53.0732 32.7027 52.708 32.5229 52.337 32.5229C51.966 32.5229 51.6009 32.7027 51.339 33.0179C51.0756 33.3306 50.925 33.7647 50.925 34.2103C50.925 34.6557 51.0758 35.0901 51.339 35.4028C51.6009 35.7177 51.966 35.8978 52.337 35.8978Z" fill="#3F2D20"/>
</svg>
