<svg width="73" height="64" viewBox="0 0 73 64" fill="none" xmlns="http://www.w3.org/2000/svg">
<path d="M60.4162 54.5302H58.8879C57.3041 54.5302 56.0201 53.3307 56.0201 51.8513V33.6996C56.0201 32.2201 57.3041 31.0207 58.8879 31.0207H60.4162C67.355 31.0207 72.9998 36.2939 72.9998 42.7754C72.9998 49.2569 67.3547 54.5302 60.4162 54.5302ZM61.7556 36.5011V49.0499C64.8927 48.4664 67.2643 45.8749 67.2643 42.7755C67.2643 39.676 64.8927 37.0846 61.7556 36.5011Z" fill="#1A948D"/>
<path d="M56.4397 64H16.5601C15.2387 64 14.0885 63.1565 13.7745 61.9576L11.3266 52.6093C11.272 52.4008 11.2444 52.1872 11.2444 51.9728V29.3201C11.2444 27.8407 12.5284 26.6413 14.1122 26.6413H58.8879C60.4716 26.6413 61.7557 27.8407 61.7557 29.3201V51.9728C61.7557 52.1872 61.7282 52.4008 61.6734 52.6093L59.2255 61.9576C58.9116 63.1564 57.7612 64 56.4397 64Z" fill="#23B898"/>
<path d="M58.8879 26.6414H36.4999V64H56.4397C57.7611 64 58.9113 63.1565 59.2253 61.9576L61.6732 52.6093C61.7279 52.4008 61.7554 52.1872 61.7554 51.9728V29.3201C61.7556 27.8407 60.4717 26.6414 58.8879 26.6414Z" fill="#1DA49C"/>
<path d="M70.132 64H2.86781C1.28406 64 0 62.8005 0 61.3211C0 59.8417 1.28406 58.6422 2.86781 58.6422H70.1322C71.7159 58.6422 73 59.8415 73 61.3211C72.9999 62.8005 71.7159 64 70.132 64Z" fill="#1DA49C"/>
<path d="M70.132 58.6422H36.4999V63.9998H70.132C71.7158 63.9998 72.9998 62.8004 72.9998 61.3209C72.9998 59.8415 71.7159 58.6422 70.132 58.6422Z" fill="#1A948D"/>
<path d="M29.3562 20.8984C26.2018 20.8984 25.3643 16.785 28.3242 15.7193C29.677 15.2322 29.6773 13.4357 28.3244 12.9489C22.0919 10.705 22.0937 2.42234 28.3245 0.179758C29.8022 -0.35192 31.4621 0.335718 32.0315 1.71632C32.6011 3.09679 31.8646 4.64734 30.3866 5.17929C29.7775 5.39864 29.3683 5.95523 29.3683 6.56442C29.3683 7.17361 29.7777 7.73019 30.3869 7.94968C36.62 10.1933 36.617 18.4754 30.3869 20.7185C30.0477 20.8406 29.699 20.8984 29.3562 20.8984Z" fill="#FFDA79"/>
<path d="M40.9685 19.1824C40.3989 17.8019 41.1351 16.2514 42.6129 15.7195C43.9657 15.2323 43.966 13.436 42.6131 12.9491C36.3807 10.7049 36.382 2.42299 42.6131 0.17987C44.0918 -0.351675 45.7508 0.335964 46.3203 1.71643C46.8899 3.09691 46.1532 4.64745 44.6753 5.1794C43.3223 5.66646 43.3228 7.4626 44.6755 7.9498C50.9086 10.1929 50.9056 18.4759 44.6755 20.7186C43.1982 21.2504 41.5383 20.5633 40.9685 19.1824Z" fill="#FFC72D"/>
</svg>
