<svg width="46" height="46" viewBox="0 0 46 46" fill="none" xmlns="http://www.w3.org/2000/svg">
<path d="M6.25418 44.8393C6.25418 44.8393 6.21235 46 7.21811 46C8.46964 46 18.8131 45.9843 18.8131 45.9843L18.8305 35.2608C18.8305 35.2608 18.6667 33.4943 20.1849 33.4943H24.9976C26.7947 33.4943 26.6849 35.2608 26.6849 35.2608L26.664 45.9508C26.664 45.9508 36.474 45.9508 38.0149 45.9508C39.2909 45.9508 39.2333 44.5069 39.2333 44.5069V24.7322L23.2353 8.67358L6.25418 24.7341C6.25418 24.7341 6.25418 44.8393 6.25418 44.8393Z" fill="#6A6969"/>
<path d="M0 23.239C0 23.239 1.43979 26.2371 4.58606 23.239L23.3782 5.29581L40.9956 23.1269C44.6352 26.0896 46 23.1269 46 23.1269L23.3782 0L0 23.239Z" fill="#6A6969"/>
<path d="M40.5668 5.25452H36.0366L36.0557 11.4572L40.5668 15.7793V5.25452Z" fill="#6A6969"/>
</svg>
