<svg width="95" height="54" viewBox="0 0 95 54" fill="none" xmlns="http://www.w3.org/2000/svg">
<path d="M5.2431 54L85.9232 44.6762L80.687 6.6189L0.00691357 15.9427L5.2431 54Z" fill="#F79B43"/>
<path d="M95 0.685577H13.674V39.0476H95V0.685577Z" fill="#FAB836"/>
<path d="M51.8042 19.5181C52.849 18.6933 53.5223 17.4068 53.5223 15.9639C53.5223 13.4801 51.5283 11.4593 49.0766 11.4593L45.5106 11.4629V27.3424H46.9815V20.4676H49.8128C51.4527 20.4676 52.7868 21.8479 52.7868 23.5446V27.3424H54.2578V23.5446C54.2578 21.7858 53.2579 20.2595 51.8042 19.5181ZM46.9815 19.0399V12.8891L49.0774 12.887C50.7172 12.887 52.0513 14.2673 52.0513 15.9639C52.0513 17.66 50.7172 19.0399 49.0774 19.0399H46.9815Z" fill="white"/>
<path d="M59.3438 13.8447C58.2324 13.8447 57.2168 14.2496 56.4449 14.9153V13.9569H54.9739V18.086V19.5793V27.3424H56.4449V22.75C57.2168 23.4156 58.2324 23.8206 59.3438 23.8206C61.7533 23.8206 63.7136 21.918 63.7136 19.5793V18.086C63.7136 15.7473 61.7533 13.8447 59.3438 13.8447ZM62.2426 19.5793C62.2426 21.1307 60.9422 22.3929 59.3438 22.3929C57.7453 22.3929 56.4449 21.1307 56.4449 19.5793V18.086C56.4449 16.5346 57.7453 15.2724 59.3438 15.2724C60.9422 15.2724 62.2426 16.5346 62.2426 18.086V19.5793Z" fill="white"/>
</svg>
