<svg width="46" height="46" viewBox="0 0 46 46" fill="none" xmlns="http://www.w3.org/2000/svg">
<path d="M45.574 43.6583L43.7485 39.5266C43.5198 39.0089 43.2997 38.0944 43.2679 37.5296L43.1226 34.9564C43.0875 34.3359 43.0589 21.7618 43.0589 21.7618C43.0592 20.8613 42.4893 20.0927 41.4278 20.0577L36.9181 19.8612C36.342 19.8359 35.4036 20.0798 35.1682 21.2746L34.3485 26.4859C34.2989 26.8011 33.9756 27.082 33.6566 27.0868L30.0914 27.1414C29.2476 27.1544 28.5434 27.7106 28.4885 28.4074C28.4642 28.7148 28.5705 29.0185 28.7879 29.2626C29.0636 29.5723 29.49 29.7598 29.9577 29.7771L35.1338 29.9687L35.1208 31.1359L32.8372 37.1005C32.5952 37.7323 32.3531 38.7553 32.2863 39.4294L31.8038 44.2949C31.7593 44.743 31.8962 45.1686 32.1894 45.4934C32.4825 45.8182 32.892 45.9978 33.3422 45.9994L33.5458 46.0001C33.5459 46.0001 33.5459 46.0001 33.546 46.0001C34.4262 46.0001 35.2226 45.2887 35.3213 44.4142L35.7731 40.4127C35.8338 39.8753 36.1466 39.007 36.4424 38.5547L38.7903 34.9643L39.7561 38.9876C39.9099 39.6283 40.2712 40.6309 40.5615 41.2226L42.2641 44.693C42.5789 45.3347 43.2895 45.7659 44.0325 45.7659C44.1782 45.7659 44.3215 45.7486 44.4584 45.7147L44.5813 45.6842C45.0193 45.5755 45.3783 45.2935 45.566 44.9106C45.7538 44.5276 45.7564 44.0713 45.574 43.6583ZM33.5455 45.4826V45.4828V45.4826Z" fill="#F79B43"/>
<path d="M31.9391 26.002C32.7747 26.002 33.5014 25.3241 33.5596 24.4907L33.8868 19.7875C33.9158 19.3686 33.7771 18.9716 33.4962 18.6699C33.2152 18.3681 32.8292 18.2015 32.4091 18.2007L25.9436 18.1894C25.1081 18.1894 24.3812 18.8674 24.3232 19.7008L23.9959 24.4039C23.9669 24.8228 24.1056 25.2197 24.3865 25.5215C24.6676 25.8234 25.0536 25.99 25.4737 25.9908L31.9365 26.002H31.9391V26.002Z" fill="#F79B43"/>
<path d="M33.8414 13.4983C34.0461 14.0571 34.6464 14.5288 35.2377 14.5954L36.1903 14.7029C36.1385 15.3754 36.2622 16.0528 36.5605 16.6779C37.0096 17.6194 37.7985 18.3295 38.7817 18.6775C39.2028 18.8266 39.6413 18.9022 40.0848 18.9022C40.085 18.9022 40.0849 18.9022 40.0851 18.9022C41.7354 18.9022 43.2147 17.8563 43.7659 16.2996C44.114 15.3165 44.0584 14.2566 43.6093 13.3151C43.1601 12.3737 42.3713 11.6635 41.388 11.3153C40.9668 11.1664 40.5284 11.0908 40.0852 11.0908C39.3212 11.0908 38.5941 11.3151 37.9785 11.7101L34.5512 11.384C34.5102 11.3801 34.47 11.3782 34.4313 11.3782C34.0965 11.3782 33.8053 11.52 33.6326 11.7674C33.4554 12.021 33.4234 12.3566 33.5448 12.6881L33.8414 13.4983Z" fill="#F79B43"/>
<path d="M18.8367 0H1.42922C0.801858 0 0.291382 0.510477 0.291382 1.13784V30.2339C0.291382 30.8612 0.801858 31.3717 1.42922 31.3717H18.8367C19.4641 31.3717 19.9746 30.8612 19.9746 30.2339V1.13784C19.9746 0.510477 19.4642 0 18.8367 0ZM6.34469 20.8253H2.75884V19.092H6.3448V20.8253H6.34469ZM16.7809 14.2994H3.4852V3.31339H16.7809V14.2994Z" fill="#F79B43"/>
</svg>
