<svg width="74" height="45" viewBox="0 0 74 45" fill="none" xmlns="http://www.w3.org/2000/svg">
<path d="M67.7617 15.37C67.7617 12.65 65.0054 10.4449 61.605 10.4449C61.383 10.4449 61.164 10.455 60.9489 10.4745C59.561 10.6006 58.175 10.2702 57.2391 9.44084C55.8873 8.24278 53.9309 7.48979 51.7545 7.48979C51.2798 7.48979 50.8158 7.5262 50.3666 7.59546C48.8481 7.82969 47.3205 7.39593 46.4039 6.39949C43.7171 3.47821 39.3981 1.57982 34.5162 1.57982C30.0685 1.57982 26.0896 3.15702 23.384 5.64626C22.4051 6.54699 20.8962 6.91087 19.4335 6.67603C18.7366 6.56421 18.0163 6.50492 17.2778 6.50492C11.1575 6.50492 6.19617 10.4739 6.19617 15.3699" fill="white"/>
<path d="M61.6052 10.4451C61.3831 10.4451 61.1642 10.4552 60.949 10.4748C59.5612 10.6009 58.1752 10.2703 57.2393 9.44108C55.8874 8.24302 53.9311 7.49004 51.7547 7.49004C51.2799 7.49004 50.816 7.52645 50.3668 7.59571C48.8483 7.82993 47.3206 7.39618 46.4041 6.39974C43.7173 3.47846 39.3983 1.57994 34.5163 1.57994C32.8798 1.57994 31.3071 1.79424 29.8376 2.18814C32.7519 2.96892 35.2597 4.45792 37.0457 6.39974C37.9623 7.39618 39.49 7.82993 41.0084 7.59571C41.4575 7.52645 41.9213 7.49004 42.3962 7.49004C44.5726 7.49004 46.529 8.24315 47.8808 9.44108C48.8167 10.2705 50.2029 10.6009 51.5906 10.4748C51.8057 10.4552 52.0245 10.4451 52.2467 10.4451C55.6469 10.4451 58.4034 12.6501 58.4034 15.37H67.762C67.7617 12.6501 65.0052 10.4451 61.6052 10.4451Z" fill="#F6F6F6"/>
<path d="M72.687 15.3943C72.687 31.1179 56.7001 43.9593 36.9792 43.9593C17.2583 43.9593 1.27112 31.1179 1.27112 15.3943H72.687Z" fill="#C7B299"/>
<path d="M68.9929 15.3943C68.9929 30.6065 53.9944 43.1408 35.132 43.9095C35.7437 43.9345 36.3595 43.9533 36.979 43.9533C56.7 43.9533 72.6868 31.1179 72.6868 15.3942H68.9929V15.3943Z" fill="#D2C1AD"/>
<path d="M4.34947 15.3943C4.34947 31.1179 19.348 43.1408 38.2104 43.9095C37.5987 43.9345 36.9829 43.9533 36.3634 43.9533C16.6425 43.9533 0.655579 31.1179 0.655579 15.3942H4.34947V15.3943Z" fill="#998675"/>
<path d="M72.6869 15.4976H1.27112V19.4376H72.6869V15.4976Z" fill="#FF4A51"/>
<path d="M59.1423 15.4976H1.27112V19.4376H59.1423V15.4976Z" fill="#FF1D25"/>
<path d="M16.0461 15.4976H1.27112V19.4376H16.0461V15.4976Z" fill="#B20209"/>
<path d="M62.8016 19.462H12.1454V21.3795H62.8016V19.462Z" fill="black"/>
<path d="M38.1925 21.4023H35.7956V23.3197H38.1925V21.4023Z" fill="white"/>
<path d="M34.677 21.4023H32.1203V23.3197H34.677V21.4023Z" fill="white"/>
<path d="M41.8679 21.4023H39.3112V23.3197H41.8679V21.4023Z" fill="white"/>
<path d="M14.7021 10.4086H12.1454V12.3261H14.7021V10.4086Z" fill="black"/>
<path d="M18.5373 8.61884H16.1404V10.5363H18.5373V8.61884Z" fill="black"/>
<path d="M22.2127 11.4312H19.8158V13.3487H22.2127V11.4312Z" fill="black"/>
<path d="M25.888 8.61884H23.3313V10.5363H25.888V8.61884Z" fill="black"/>
<path d="M29.5634 4.52829H27.1665V6.44575H29.5634V4.52829Z" fill="black"/>
<path d="M36.9142 4.52829H34.677V6.44575H36.9142V4.52829Z" fill="black"/>
<path d="M29.5634 11.4312H27.1665V13.3487H29.5634V11.4312Z" fill="black"/>
<path d="M35.7956 8.61884H33.2389V10.5363H35.7956V8.61884Z" fill="black"/>
<path d="M43.3061 9.6416H40.7494V11.5591H43.3061V9.6416Z" fill="black"/>
<path d="M45.5434 11.4312H43.3062V13.3487H45.5434V11.4312Z" fill="black"/>
<path d="M51.9352 11.4312H49.3785V13.3487H51.9352V11.4312Z" fill="black"/>
<path d="M54.1725 9.6416H51.9353V11.5591H54.1725V9.6416Z" fill="black"/>
<path d="M68.8792 14.4995C68.3517 11.6666 65.2911 9.48624 61.6052 9.48624C61.341 9.48624 61.0746 9.4983 60.8138 9.52204C59.7374 9.61971 58.7583 9.35621 58.1289 8.79845C56.5028 7.35756 54.1794 6.53113 51.7546 6.53113C51.2126 6.53113 50.6693 6.57259 50.14 6.65427C49.0526 6.8217 47.9906 6.50689 47.3694 5.83141C44.3687 2.569 39.5636 0.621155 34.5163 0.621155C29.9034 0.621155 25.5165 2.22345 22.4801 5.01704C21.802 5.64086 20.7511 5.90965 19.6697 5.73607C18.885 5.60998 18.0803 5.54613 17.278 5.54613C10.8736 5.54613 5.60166 9.48907 5.04883 14.4994H0V15.4582C0 31.7376 16.5632 44.982 36.9136 44.982C57.2639 44.982 73.8271 31.7378 73.8271 15.4582V14.4994L68.8792 14.4995ZM7.72348 13.349H10.0672V11.4315H8.71381C10.4229 9.06269 13.6202 7.46372 17.2778 7.46372C17.9219 7.46372 18.5677 7.51502 19.1978 7.61626C21.1058 7.9227 23.0563 7.40873 24.2886 6.27538C26.0429 4.6614 28.3271 3.51586 30.8407 2.94716V4.52842H33.2377V2.61095H32.9645C33.4769 2.56347 33.9946 2.53874 34.5159 2.53874C37.3875 2.53874 40.0971 3.24178 42.3521 4.52842H41.8667V6.44588H44.2637V5.85232C44.6806 6.19984 45.0735 6.57148 45.4382 6.96796C46.6132 8.24512 48.5888 8.84618 50.5933 8.53717C50.9736 8.47849 51.364 8.44884 51.7542 8.44884C53.502 8.44884 55.1768 9.04473 56.3492 10.0836C57.5033 11.1062 59.2296 11.596 61.0842 11.4274C61.2556 11.4118 61.4308 11.4039 61.6047 11.4039C62.5055 11.4039 63.3502 11.5981 64.0788 11.9354V13.3492H65.8685C66.1304 13.7014 66.3254 14.0885 66.441 14.4997H59.285V13.477H56.7283V14.4997H35.795V13.477H33.2383V14.4997H7.45606C7.51019 14.1067 7.6 13.7226 7.72348 13.349ZM36.9791 43.0647C20.0495 43.0647 5.92936 33.2624 3.02004 20.38H10.0674V18.4625H2.67266C2.581 17.7877 2.5198 17.1055 2.49012 16.4173H71.4677C71.4382 17.1057 71.377 17.7878 71.2852 18.4625H64.0792V20.38H70.9378C68.0285 33.2624 53.9084 43.0647 36.9791 43.0647Z" fill="black"/>
</svg>
