<svg width="68" height="61" viewBox="0 0 68 61" fill="none" xmlns="http://www.w3.org/2000/svg">
<path d="M66.7867 22.4042C62.8329 9.48929 49.6527 0 34 0C15.2223 0 0 13.6553 0 30.4999C0 44.5414 10.5782 56.3646 24.9753 59.9115L66.7867 22.4042Z" fill="#9C11A9"/>
<path d="M68 30.4999C68 27.6967 67.5762 24.9827 66.7868 22.4042L54.9057 11.7462L13.0943 49.2536L24.9754 59.9117C27.8496 60.6198 30.8752 61 34.0002 61C52.7777 60.9999 68 47.3445 68 30.4999Z" fill="#20162F"/>
<path d="M34 3.97823L19.2174 30.5L34 57.0217C50.3283 57.0217 63.5652 45.1475 63.5652 30.5C63.5652 15.8524 50.3283 3.97823 34 3.97823Z" fill="#FFF3AD"/>
<path d="M4.43475 30.5C4.43475 45.1474 17.6715 57.0217 34 57.0217V3.97823C17.6716 3.97823 4.43475 15.8525 4.43475 30.5Z" fill="white"/>
<path d="M33.9999 7.95654L21.4347 30.4999L33.9999 53.0433C47.879 53.0433 59.1303 42.9503 59.1303 30.4999C59.1303 18.0495 47.879 7.95654 33.9999 7.95654Z" fill="#FFD23E"/>
<path d="M8.86957 30.4999C8.86957 42.9505 20.1209 53.0433 33.9999 53.0433V7.95654C20.1209 7.95654 8.86957 18.0494 8.86957 30.4999Z" fill="#FFE376"/>
<path d="M41.3913 9.40198L37.6957 16.0324L41.3913 22.6628C45.4734 22.6628 48.7826 19.6942 48.7826 16.0324C48.7826 12.3706 45.4734 9.40198 41.3913 9.40198Z" fill="#F72E12"/>
<path d="M34 16.0324C34 19.6943 37.3093 22.6628 41.3913 22.6628V9.40198C37.3093 9.40198 34 12.3705 34 16.0324Z" fill="#F8513A"/>
<path d="M41.3913 12.0541L39.1739 16.0324L41.3913 20.0106C43.8405 20.0106 45.8261 18.2295 45.8261 16.0324C45.8261 13.8352 43.8405 12.0541 41.3913 12.0541Z" fill="#F8513A"/>
<path d="M36.9565 16.0324C36.9565 18.2296 38.9421 20.0106 41.3913 20.0106V12.054C38.9421 12.0542 36.9565 13.8352 36.9565 16.0324Z" fill="#FA7461"/>
<path d="M34 10.6086L29.5652 23.8694L34 37.1303C42.1642 37.1303 48.7826 31.1933 48.7826 23.8695C48.7826 16.5457 42.1642 10.6086 34 10.6086Z" fill="#6E259B"/>
<path d="M19.2174 23.8695C19.2174 31.1933 25.8357 37.1303 34 37.1303V10.6086C25.8357 10.6086 19.2174 16.5457 19.2174 23.8695Z" fill="#9C11A9"/>
<path d="M34 13.2608L29.5652 23.8694L34 34.4782C40.5314 34.4782 45.826 29.7285 45.826 23.8695C45.826 18.0106 40.5314 13.2608 34 13.2608Z" fill="#FFE376"/>
<path d="M22.174 23.8695C22.174 29.7286 27.4687 34.4782 34 34.4782V13.2608C27.4685 13.2608 22.174 18.0105 22.174 23.8695Z" fill="#FFF3AD"/>
<path d="M34 15.913L30.674 23.8695L34 31.826C38.8985 31.826 42.8696 28.2637 42.8696 23.8694C42.8696 19.4752 38.8985 15.913 34 15.913Z" fill="#FFF3AD"/>
<path d="M25.1304 23.8695C25.1304 28.2638 29.1015 31.8261 34 31.8261V15.913C29.1015 15.913 25.1304 19.4753 25.1304 23.8695Z" fill="white"/>
<path d="M34 26.5217L30.0087 38.4565L34 50.3913C41.3479 50.3913 47.3044 45.0479 47.3044 38.4565C47.3044 31.865 41.3479 26.5217 34 26.5217Z" fill="#81982D"/>
<path d="M20.6957 38.4565C20.6957 45.0479 26.6522 50.3913 34 50.3913V26.5217C26.6522 26.5217 20.6957 31.865 20.6957 38.4565Z" fill="#A0AD2F"/>
<path d="M34 29.1739L30.8957 38.4565L34 47.7391C39.715 47.7391 44.3479 43.5831 44.3479 38.4565C44.3479 33.3299 39.715 29.1739 34 29.1739Z" fill="#FFF3AD"/>
<path d="M23.6522 38.4565C23.6522 43.5831 28.2851 47.7391 34 47.7391V29.1739C28.2851 29.1739 23.6522 33.3298 23.6522 38.4565Z" fill="white"/>
<path d="M30.0144 38.6751L30.928 36.1525L28.1159 35.333L27.2023 37.8556L30.0144 38.6751Z" fill="#FFE65A"/>
<path d="M32.9894 41.9075L30.5976 40.3485L28.8597 42.4941L31.2516 44.0531L32.9894 41.9075Z" fill="#FFE65A"/>
<path d="M37.3326 40.371L34.9407 41.9299L36.6786 44.0756L39.0704 42.5166L37.3326 40.371Z" fill="#FFE65A"/>
<path d="M37.0422 36.1866L37.9558 38.7092L40.7679 37.8897L39.8543 35.367L37.0422 36.1866Z" fill="#FFE65A"/>
<path d="M41.3913 51.5979L37.6957 44.9675L41.3913 38.3371C45.4734 38.3371 48.7826 41.3057 48.7826 44.9675C48.7826 48.6293 45.4734 51.5979 41.3913 51.5979Z" fill="#F72E12"/>
<path d="M34 44.9675C34 41.3056 37.3093 38.3371 41.3913 38.3371V51.5979C37.3093 51.5979 34 48.6294 34 44.9675Z" fill="#F8513A"/>
<path d="M41.3913 48.9458L39.1739 44.9675L41.3913 40.9893C43.8405 40.9893 45.8261 42.7704 45.8261 44.9675C45.8261 47.1647 43.8405 48.9458 41.3913 48.9458Z" fill="#F8513A"/>
<path d="M36.9565 44.9675C36.9565 42.7704 38.9421 40.9893 41.3913 40.9893V48.9459C38.9421 48.9458 36.9565 47.1647 36.9565 44.9675Z" fill="#FA7461"/>
<path d="M45.8261 18.5652L41.8348 30.4999L45.8261 42.4347C53.1739 42.4347 59.1304 37.0914 59.1304 30.4999C59.1304 23.9085 53.1739 18.5652 45.8261 18.5652Z" fill="#44702A"/>
<path d="M32.5218 30.4999C32.5218 37.0914 38.4783 42.4347 45.8261 42.4347V18.5652C38.4783 18.5652 32.5218 23.9085 32.5218 30.4999Z" fill="#63842C"/>
<path d="M45.826 21.2173L42.7218 30.4999L45.8262 39.7825C51.5411 39.7825 56.174 35.6265 56.174 30.4999C56.174 25.3733 51.5411 21.2173 45.826 21.2173Z" fill="#FFF3AD"/>
<path d="M35.4782 30.4999C35.4782 35.6265 40.1111 39.7825 45.826 39.7825V21.2173C40.1111 21.2173 35.4782 25.3733 35.4782 30.4999Z" fill="white"/>
<path d="M47.3044 24.5325H44.3478V27.1847H47.3044V24.5325Z" fill="#FFE65A"/>
<path d="M41.8405 30.7195L42.7542 28.1969L39.9421 27.3773L39.0284 29.8999L41.8405 30.7195Z" fill="#FFE65A"/>
<path d="M44.8157 33.9504L42.4238 32.3914L40.686 34.537L43.0778 36.096L44.8157 33.9504Z" fill="#FFE65A"/>
<path d="M49.1575 32.4141L46.7656 33.9731L48.5035 36.1187L50.8953 34.5597L49.1575 32.4141Z" fill="#FFE65A"/>
<path d="M48.8687 28.2296L49.7823 30.7522L52.5944 29.9326L51.6808 27.41L48.8687 28.2296Z" fill="#FFE65A"/>
<path d="M13.3043 43.5919L16.2609 15.9481H19.2174V20.7317L17.7391 22.0578L19.2174 23.384V31.3404L17.7391 32.6665L19.2174 33.9925V43.5919H13.3043Z" fill="#81982D"/>
<path d="M13.3043 23.4348L14.7826 24.761L13.3043 26.0871V43.5919H16.2608V15.9481H13.3043V23.4348Z" fill="#A0AD2F"/>
<path d="M16.2609 47.3047L14.6831 39.0167L20.6957 40.3427C20.6957 43.1506 18.6703 46.2482 16.2609 47.3047Z" fill="#63842C"/>
<path d="M14.683 40.3428L16.2608 33.3809C18.6704 34.4376 20.6955 37.5349 20.6955 40.3428H14.683Z" fill="#81982D"/>
<path d="M11.826 40.3428L16.2608 39.0168V47.3048C13.8513 46.2481 11.826 43.1506 11.826 40.3428Z" fill="#81982D"/>
<path d="M11.826 40.3428C11.826 37.5349 13.8513 34.4376 16.2608 33.3809V40.3428H11.826Z" fill="#A0AD2F"/>
<path d="M16.2609 23.4346H13.3043V26.0868H16.2609V23.4346Z" fill="#BEC130"/>
<path d="M19.2175 31.3407H16.2609V33.9929H19.2175V31.3407Z" fill="#63842C"/>
<path d="M19.2175 20.732H16.2609V23.3842H19.2175V20.732Z" fill="#63842C"/>
<path d="M19.2174 14.1043L22.1739 51.5989H25.1304V26.4033L23.6521 25.0773L25.1304 23.7512V14.1043H19.2174Z" fill="#81982D"/>
<path d="M19.2173 14.1043V29.0555L20.6956 30.3816L19.2173 31.7078L19.2174 34.3597L20.6956 35.686L19.2174 37.012L19.2173 43.6424L20.6956 44.9686L19.2173 46.2945V51.5989H22.174V14.1043H19.2173Z" fill="#A0AD2F"/>
<path d="M22.1739 9.00189L20.5961 17.2899L26.6087 15.9639C26.6087 13.156 24.5833 10.0584 22.1739 9.00189Z" fill="#63842C"/>
<path d="M20.5961 15.9639L22.1739 22.9258C24.5835 21.869 26.6086 18.7718 26.6086 15.9639C26.6086 15.9639 20.5961 15.9639 20.5961 15.9639Z" fill="#81982D"/>
<path d="M17.7391 15.9639L22.1738 17.2899V9.00189C19.7643 10.0584 17.7391 13.156 17.7391 15.9639Z" fill="#81982D"/>
<path d="M17.7391 15.9639C17.7391 18.7718 19.7643 21.869 22.1738 22.9258V15.9639C22.1739 15.9639 17.7391 15.9639 17.7391 15.9639Z" fill="#A0AD2F"/>
<path d="M22.1738 43.6428H19.2173V46.295H22.1738V43.6428Z" fill="#BEC130"/>
<path d="M22.1738 34.3602H19.2173V37.0124H22.1738V34.3602Z" fill="#BEC130"/>
<path d="M22.1739 29.0558H19.2173V31.708H22.1739V29.0558Z" fill="#BEC130"/>
<path d="M25.1305 23.7515H22.174V26.4037H25.1305V23.7515Z" fill="#63842C"/>
</svg>
