<svg width="48" height="75" viewBox="0 0 48 75" fill="none" xmlns="http://www.w3.org/2000/svg">
<path d="M36.8862 1.84201H11.116V12.8123H36.8862V1.84201Z" fill="#80D0E1"/>
<path d="M45.7755 23.7824H2.22662L11.116 12.8123H36.8861L45.7755 23.7824Z" fill="white"/>
<path d="M45.7755 23.7824H2.22662V42.8561H45.7755V23.7824Z" fill="#80D0E1"/>
<path d="M39.5529 73.1582H8.44916C5.01254 73.1582 2.22662 70.849 2.22662 68.0006V42.8561H45.7755V68.0006C45.7755 70.849 42.9896 73.1582 39.5529 73.1582Z" fill="white"/>
<path d="M39.1085 12.2511V1.84202C39.1085 0.824732 38.1138 0 36.8862 0H11.1157C9.88813 0 8.89341 0.824732 8.89341 1.84202V12.2511C-0.472984 23.8101 0.00407736 23.0215 0.00407736 23.7824C0.00407736 25.4213 0.00407736 13.9524 0.00407736 68.0003C0.00407736 71.86 3.79241 75 8.44894 75H39.553C44.2095 75 47.9979 71.86 47.9979 68.0003C47.9979 65.9658 47.9979 24.643 47.9979 23.7824C47.9979 23.0117 48.3736 23.6849 39.1085 12.2511ZM4.44874 25.6246H43.5532V41.0143H4.44874V25.6246ZM13.3381 3.68403H34.6639V10.9703H13.3381V3.68403V3.68403ZM12.3004 14.6543H35.7022L41.6062 21.9406H6.3964L12.3004 14.6543ZM43.5532 68.0006C43.5532 69.8288 41.7588 71.3162 39.553 71.3162H8.44894C6.2432 71.3162 4.44874 69.8288 4.44874 68.0006V63.9017H11.0417C12.2693 63.9017 13.264 63.077 13.264 62.0597C13.264 61.0424 12.2693 60.2177 11.0417 60.2177H4.44874V55.7969H11.0417C12.2693 55.7969 13.264 54.9721 13.264 53.9548C13.264 52.9376 12.2693 52.1128 11.0417 52.1128H4.44874V44.6983H43.5532V68.0006Z" fill="#414042"/>
</svg>
