<svg width="42" height="72" viewBox="0 0 42 72" fill="none" xmlns="http://www.w3.org/2000/svg">
<path d="M32.2754 1.76833H9.7265V12.2998H32.2754V1.76833Z" fill="#80D0E1"/>
<path d="M40.0536 22.8311H1.94833L9.7265 12.2998H32.2754L40.0536 22.8311Z" fill="white"/>
<path d="M40.0536 22.8311H1.94833V41.1418H40.0536V22.8311Z" fill="#80D0E1"/>
<path d="M34.6089 70.2319H7.39305C4.38601 70.2319 1.94833 68.0151 1.94833 65.2805V41.1418H40.0536V65.2805C40.0536 68.0151 37.6159 70.2319 34.6089 70.2319Z" fill="white"/>
<path d="M34.22 11.7611V1.76833C34.22 0.791742 33.3496 0 32.2754 0H9.72628C8.65211 0 7.78173 0.791742 7.78173 1.76833V11.7611C-0.413861 22.8577 0.00356769 22.1006 0.00356769 22.8311C0.00356769 24.4044 0.00356769 13.3943 0.00356769 65.2803C0.00356769 68.9856 3.31836 72 7.39283 72H34.6089C38.6834 72 41.9981 68.9856 41.9981 65.2803C41.9981 63.3271 41.9981 23.6573 41.9981 22.8311C41.9981 22.0912 42.3269 22.7375 34.22 11.7611ZM3.89265 24.5997H38.1091V39.3737H3.89265V24.5997ZM11.6708 3.53667H30.3309V10.5315H11.6708V3.53667V3.53667ZM10.7628 14.0682H31.2394L36.4054 21.063H5.59685L10.7628 14.0682ZM38.1091 65.2806C38.1091 67.0357 36.5389 68.4636 34.6089 68.4636H7.39283C5.4628 68.4636 3.89265 67.0357 3.89265 65.2806V61.3457H9.66146C10.7356 61.3457 11.606 60.5539 11.606 59.5773C11.606 58.6007 10.7356 57.809 9.66146 57.809H3.89265V53.565H9.66146C10.7356 53.565 11.606 52.7732 11.606 51.7967C11.606 50.8201 10.7356 50.0283 9.66146 50.0283H3.89265V42.9104H38.1091V65.2806Z" fill="#414042"/>
</svg>
